<?xml version="1.0" encoding="UTF-8"?>
<!DOCTYPE svg PUBLIC "-//W3C//DTD SVG 1.1//EN" "http://www.w3.org/Graphics/SVG/1.1/DTD/svg11.dtd">
<!-- Creator: CorelDRAW X7 -->
<svg xmlns="http://www.w3.org/2000/svg" xml:space="preserve" width="8.26772in" height="11.6929in" version="1.1" style="shape-rendering:geometricPrecision; text-rendering:geometricPrecision; image-rendering:optimizeQuality; fill-rule:evenodd; clip-rule:evenodd"
viewBox="0 0 8268 11693"
 xmlns:xlink="http://www.w3.org/1999/xlink">
 <defs>
  <style type="text/css">
   <![CDATA[
    .str0 {stroke:#3E4095;stroke-width:78.7402}
    .fil0 {fill:#FEFEFE}
    .fil4 {fill:#373435}
    .fil5 {fill:#FFF212}
    .fil2 {fill:#ED3237}
    .fil6 {fill:#00A859}
    .fil1 {fill:#0000FE}
    .fil3 {fill:#373435;fill-rule:nonzero}
   ]]>
  </style>
 </defs>
 <g id="Layer_x0020_1">
  <metadata id="CorelCorpID_0Corel-Layer"/>
  <circle class="fil0" cx="4129" cy="5850" r="1750"/>
  <g id="_2027765126192">
   <path class="fil1 str0" d="M4919 7406c-245,126 -516,191 -793,191 -268,0 -530,-61 -768,-178l776 1086 785 -1099zm763 -2326c121,240 183,506 183,777 0,269 -61,532 -180,772l1208 -765 -1211 -784zm-1548 -1892l-798 1118c244,-124 513,-189 790,-189 286,0 565,70 815,203l-807 -1132zm-1576 3425c-113,-235 -172,-492 -172,-756 0,-265 60,-525 175,-762l-1186 769 1183 749z"/>
   <path class="fil2" d="M4134 2530c1832,0 3317,1485 3317,3316 0,1832 -1485,3317 -3317,3317 -1832,0 -3317,-1485 -3317,-3317 0,-1831 1485,-3316 3317,-3316zm0 232c1703,0 3084,1381 3084,3084 0,1704 -1381,3085 -3084,3085 -1704,0 -3084,-1381 -3084,-3085 0,-1703 1380,-3084 3084,-3084z"/>
   <path class="fil2" d="M4134 2890c1633,0 2956,1324 2956,2956 0,1633 -1323,2957 -2956,2957 -1633,0 -2956,-1324 -2956,-2957 0,-1632 1323,-2956 2956,-2956zm0 114c1569,0 2842,1273 2842,2842 0,1570 -1273,2842 -2842,2842 -1570,0 -2842,-1272 -2842,-2842 0,-1569 1272,-2842 2842,-2842z"/>
   <path class="fil2" d="M4126 4162c936,0 1694,759 1694,1695 0,936 -758,1695 -1694,1695 -936,0 -1695,-759 -1695,-1695 0,-936 759,-1695 1695,-1695zm0 58c904,0 1637,733 1637,1637 0,905 -733,1638 -1637,1638 -905,0 -1638,-733 -1638,-1638 0,-904 733,-1637 1638,-1637z"/>
   <path class="fil2" d="M4126 4594c697,0 1263,566 1263,1263 0,698 -566,1264 -1263,1264 -698,0 -1264,-566 -1264,-1264 0,-697 566,-1263 1264,-1263zm0 54c-668,0 -1210,541 -1210,1209 0,668 542,1210 1210,1210 667,0 1209,-542 1209,-1210 0,-668 -542,-1209 -1209,-1209z"/>
   <path class="fil1 str0" d="M5138 4442c155,112 291,248 403,403l0 -403 -403 0zm403 2428c-105,146 -233,276 -377,383l377 0 0 -383zm-2454 383c-144,-107 -271,-237 -376,-383l0 383 376 0zm-376 -2811l0 403c111,-155 247,-291 402,-403l-402 0z"/>
   <path class="fil3" d="M2627 6315l-10 -45 120 -28c19,-4 31,-7 36,-10 9,-4 15,-10 19,-18 4,-9 5,-19 2,-31 -3,-13 -8,-22 -15,-27 -6,-5 -14,-8 -21,-7 -8,0 -21,2 -38,7l-123 28 -10 -45 116 -27c27,-6 46,-9 57,-9 12,0 22,2 31,7 9,4 17,12 24,21 7,10 13,24 17,41 5,21 6,38 4,50 -3,12 -7,22 -14,30 -6,8 -13,14 -21,18 -12,6 -31,12 -56,18l-118 27zm166 -331l-227 5 -1 -44 150 -97 -153 3 -1 -42 228 -6 1 46 -147 96 149 -4 1 43zm6 -283l-225 -29 6 -46 225 29 -6 46zm40 -200l-241 15 13 -48 178 -9 -146 -99 13 -47 196 140 -13 48zm70 -198l-202 -104 77 -149 34 17 -56 109 45 23 52 -101 34 17 -52 101 55 29 58 -113 34 17 -79 154zm132 -233l-172 -149 64 -73c16,-19 29,-31 39,-36 10,-6 22,-8 34,-6 12,2 23,7 33,16 13,11 21,24 22,39 2,15 -2,31 -13,48 11,-4 21,-6 30,-6 10,-1 25,1 45,4l52 8 -36 42 -59 -8c-21,-3 -35,-4 -41,-3 -6,0 -12,1 -16,4 -5,2 -11,8 -17,16l-7 7 72 62 -30 35zm-69 -121l22 -26c15,-16 23,-27 25,-33 2,-5 3,-10 1,-16 -1,-5 -4,-10 -9,-14 -6,-5 -12,-8 -18,-8 -7,0 -13,3 -19,7 -2,3 -10,11 -22,25l-24 27 44 38zm207 -140l32 -31c12,10 23,15 34,16 10,0 21,-4 32,-13 12,-9 19,-18 21,-27 2,-10 0,-18 -5,-25 -3,-4 -8,-6 -12,-8 -5,-1 -11,0 -19,3 -6,2 -17,7 -35,15 -23,10 -41,15 -55,14 -18,-1 -33,-9 -44,-23 -8,-9 -12,-20 -13,-32 -1,-12 2,-24 8,-36 6,-11 16,-23 30,-33 23,-18 43,-26 62,-25 19,1 36,9 49,26l-35 29c-9,-8 -17,-12 -25,-12 -8,0 -18,4 -28,12 -10,8 -17,17 -19,26 -2,5 -1,11 3,15 3,4 8,7 14,7 8,0 22,-5 42,-14 21,-10 38,-16 49,-18 12,-2 24,-1 34,3 11,4 21,11 30,23 8,10 13,22 14,35 1,14 -1,27 -8,39 -7,13 -19,25 -34,37 -23,18 -44,26 -65,25 -20,0 -39,-10 -57,-28zm271 -104l-113 -197 39 -23 114 197 -40 23zm177 -87l-69 -176 -62 25 -14 -36 168 -66 14 36 -63 24 69 176 -43 17zm367 -94l-48 8 -29 -47 -90 16 -9 55 -48 8 46 -239 48 -9 130 208zm-99 -74l-46 -77 -15 88 61 -11zm170 -4l45 -3c3,15 8,26 16,33 8,7 19,11 32,12 15,0 26,-3 34,-9 8,-6 12,-13 12,-21 0,-6 -1,-10 -5,-14 -3,-4 -8,-8 -16,-10 -5,-3 -17,-6 -36,-11 -24,-7 -41,-15 -51,-24 -13,-13 -20,-29 -19,-47 0,-11 4,-22 10,-32 7,-10 17,-18 29,-22 13,-5 28,-8 45,-7 28,1 50,8 64,21 14,13 21,30 21,51l-46 0c-2,-12 -6,-20 -12,-26 -6,-5 -16,-8 -29,-8 -13,0 -23,2 -31,7 -5,4 -7,8 -8,14 0,6 2,10 7,14 6,5 19,11 42,17 22,6 38,12 48,17 11,6 19,14 25,24 6,10 8,22 8,37 -1,13 -4,25 -12,36 -8,11 -18,19 -31,24 -14,6 -30,8 -50,7 -29,0 -51,-8 -66,-21 -15,-14 -23,-34 -26,-59zm364 109l61 -219 71 20c27,8 44,14 52,18 11,7 20,17 25,31 6,13 6,28 1,46 -4,13 -9,24 -17,32 -7,7 -15,13 -24,16 -9,3 -18,4 -26,4 -11,-1 -27,-4 -47,-10l-28 -8 -24 83 -44 -13zm95 -169l-17 62 24 7c17,5 29,7 36,6 6,0 12,-3 17,-7 4,-4 7,-9 9,-15 3,-8 2,-16 -1,-22 -3,-7 -8,-12 -15,-15 -5,-2 -15,-6 -31,-10l-22 -6zm320 338l-45 -22 6 -56 -81 -41 -40 38 -43 -22 181 -163 44 22 -22 244zm-34 -118l10 -90 -66 61 56 29zm100 164l149 -172 52 46 -71 143 132 -90 53 45 -149 172 -32 -28 117 -136 -151 106 -34 -29 84 -164 -118 135 -32 -28zm421 86l27 38 -100 71c-16,12 -26,20 -30,24 -7,7 -10,15 -11,24 0,9 4,19 11,30 8,10 15,16 24,19 8,2 15,1 22,-2 7,-4 18,-11 33,-21l102 -73 27 37 -97 70c-22,16 -39,26 -49,30 -11,5 -21,7 -32,6 -10,-1 -20,-5 -30,-11 -10,-6 -21,-17 -31,-31 -13,-18 -20,-33 -23,-45 -2,-12 -2,-23 1,-33 3,-10 7,-18 13,-25 9,-10 24,-22 44,-37l99 -71zm-25 371l205 -93 19 42 -170 77 47 103 -35 16 -66 -145zm143 428l-11 -48 46 -31 -20 -89 -55 -6 -11 -48 241 35 11 47 -201 140zm69 -102l75 -50 -89 -11 14 61zm-60 183l227 -7 1 45 -149 98 152 -5 1 43 -227 6 -1 -46 146 -96 -149 4 -1 -42zm58 404l38 7 -17 97 -90 -16c-7,-11 -13,-26 -17,-46 -3,-19 -3,-38 0,-56 4,-23 13,-43 26,-59 13,-15 29,-26 49,-31 20,-5 41,-6 62,-2 23,4 43,13 60,26 16,13 27,29 34,50 4,16 5,34 1,56 -5,27 -15,48 -29,61 -15,14 -33,21 -54,22l0 -47c11,-1 21,-5 29,-13 8,-7 13,-18 15,-31 4,-19 0,-36 -10,-50 -10,-14 -28,-23 -53,-27 -26,-5 -47,-3 -63,6 -15,10 -24,24 -28,43 -2,9 -1,19 1,29 2,11 5,20 9,27l28 5 9 -51z"/>
   <path class="fil3" d="M3379 6953l40 23 -62 107c-9,17 -15,28 -17,34 -3,9 -3,18 1,26 3,9 11,16 22,23 11,6 21,8 29,7 8,-1 15,-5 20,-11 5,-6 12,-17 21,-33l62 -109 40 23 -59 104c-14,23 -24,40 -32,48 -8,9 -16,15 -26,18 -10,4 -20,5 -32,3 -12,-2 -26,-7 -42,-16 -18,-10 -31,-21 -39,-31 -7,-10 -11,-20 -13,-30 -2,-10 -1,-19 2,-28 3,-13 12,-30 24,-52l61 -106zm255 376l63 -219 43 13 48 172 42 -147 40 12 -62 219 -44 -13 -48 -169 -41 143 -41 -11zm402 76l5 -228 73 2c28,1 46,2 55,4 13,4 23,12 32,23 8,12 13,27 12,45 0,14 -3,26 -8,35 -5,9 -12,17 -20,22 -8,5 -16,9 -24,10 -11,2 -27,3 -47,3l-30 -1 -2 86 -46 -1zm50 -188l-1 65 25 0c18,0 30,-1 36,-3 6,-2 11,-6 14,-11 4,-5 6,-11 6,-17 0,-9 -2,-15 -7,-21 -5,-5 -11,-9 -18,-11 -6,-1 -16,-1 -33,-2l-22 0zm517 120l-48 11 -31 -46 -89 21 -6 54 -48 11 35 -241 48 -11 139 201zm-102 -69l-50 -75 -11 89 61 -14zm292 -9l-112 -198 60 -34 112 115 -42 -155 60 -34 113 198 -37 21 -89 -156 50 178 -39 22 -127 -134 88 156 -37 21z"/>
   <polygon class="fil4" points="2979,6578 3013,6683 3123,6683 3034,6748 3068,6853 2979,6788 2889,6853 2924,6748 2834,6683 2945,6683 "/>
   <polygon class="fil4" points="5281,6578 5315,6683 5425,6683 5336,6748 5370,6853 5281,6788 5191,6853 5226,6748 5136,6683 5247,6683 "/>
   <path class="fil5" d="M2431 5857c0,-936 759,-1695 1695,-1695 936,0 1694,759 1694,1695 0,936 -758,1695 -1694,1695 -936,0 -1695,-759 -1695,-1695zm905 -1551l798 -1118 807 1132c-250,-133 -529,-203 -815,-203 -277,0 -546,65 -790,189zm2205 539c-112,-155 -248,-291 -403,-403l403 0 0 403zm-377 2408c144,-107 272,-237 377,-383l0 383 -377 0zm-2453 -2811l402 0c-155,112 -291,248 -402,403l0 -403zm0 2428c105,146 232,276 376,383l-376 0 0 -383zm4265 -1024c0,-1569 -1273,-2842 -2842,-2842 -1570,0 -2842,1273 -2842,2842 0,1570 1272,2842 2842,2842 1569,0 2842,-1272 2842,-2842zm-2850 1751c277,0 548,-65 793,-191l-785 1099 -776 -1086c238,117 500,178 768,178zm1739 -1740c0,-271 -62,-537 -183,-777l1211 784 -1208 765c119,-240 180,-503 180,-772zm-3479 0c0,264 59,521 172,756l-1183 -749 1186 -769c-115,237 -175,497 -175,762z"/>
   <path class="fil5" d="M1178 5846c0,-1632 1323,-2956 2956,-2956 1633,0 2956,1324 2956,2956 0,1633 -1323,2957 -2956,2957 -1633,0 -2956,-1324 -2956,-2957zm6040 0c0,-1703 -1381,-3084 -3084,-3084 -1704,0 -3084,1381 -3084,3084 0,1704 1380,3085 3084,3085 1703,0 3084,-1381 3084,-3085z"/>
   <path class="fil5" d="M4126 7067c667,0 1209,-542 1209,-1210 0,-668 -542,-1209 -1209,-1209 -668,0 -1210,541 -1210,1209 0,668 542,1210 1210,1210z"/>
   <g>
    <g>
     <g>
      <path class="fil6" d="M4033 5765c-171,160 -642,-495 -622,-622 127,-21 782,451 622,622z"/>
      <path class="fil6" d="M4218 5950c-160,171 495,642 622,622 21,-127 -451,-783 -622,-622z"/>
     </g>
     <g>
      <path class="fil6" d="M4033 5950c160,171 -495,642 -622,622 -20,-127 451,-783 622,-622z"/>
      <path class="fil6" d="M4218 5765c171,160 643,-495 622,-622 -127,-21 -782,451 -622,622z"/>
     </g>
    </g>
    <g>
     <path class="fil0" d="M4124 4775c-138,91 -240,174 -240,174 0,0 -119,83 -65,214 50,125 285,221 306,229l1 1 0 -1c21,-8 256,-104 307,-229 53,-131 -66,-214 -66,-214 0,0 -102,-83 -240,-174l-1 -1 -2 1z"/>
     <path class="fil0" d="M4124 6939c-138,-91 -240,-174 -240,-174 0,0 -119,-82 -65,-213 50,-125 285,-221 306,-230l1 0 0 0c21,9 256,105 307,230 53,131 -66,213 -66,213 0,0 -102,83 -240,174l-1 1 -2 -1z"/>
    </g>
    <g>
     <path class="fil0" d="M3043 5859c92,138 175,240 175,240 0,0 82,119 213,65 125,-51 221,-285 229,-306l1 -1 -1 0c-8,-22 -104,-256 -229,-307 -131,-53 -213,66 -213,66 0,0 -83,102 -175,240l0 1 0 2z"/>
     <path class="fil0" d="M5208 5859c-91,138 -174,240 -174,240 0,0 -83,119 -214,65 -125,-51 -221,-285 -229,-306l-1 -1 1 0c8,-22 104,-256 229,-307 131,-53 214,66 214,66 0,0 83,102 174,240l1 1 -1 2z"/>
    </g>
   </g>
  </g>
 </g>
</svg>
